<svg xmlns="http://www.w3.org/2000/svg" xmlns:xlink="http://www.w3.org/1999/xlink" fill="none" version="1.1" width="94.47" height="24" viewBox="0 0 94.47139739990234 24.0009765625"><path d="M12.209442092773438,0.00175979505C5.5837077927734375,-0.11267644875,0.1175721627734375,5.16410638125,0.0018665827734375,11.79123728125C-0.0375496072265625,14.04944428125,0.5498787727734376,16.17160228125,1.6026724927734375,17.99495328125C1.5683421927734376,17.01843228125,1.7488938927734374,15.92111528125,2.1494133927734373,14.73479228125C2.8156740927734374,12.76267428125,4.041390892773437,10.68883428125,5.671440592773438,8.74977588125L4.405036492773437,8.05680178125C4.145652792773437,7.91439248125,3.9841737927734373,7.64228728125,3.9841737927734373,7.34602498125C3.9841737927734373,7.04976178125,4.145652792773437,6.77765848125,4.405036492773437,6.63524918125L5.812576792773437,5.86598208125C5.834191292773437,5.85326768125,5.853263392773438,5.83546588125,5.864707492773437,5.81385038125L6.633958792773438,4.40628478125C6.776365792773437,4.14689588125,7.048463792773438,3.98541378125,7.344720792773438,3.98541378125C7.640977892773438,3.98541378125,7.9130777927734375,4.14689588125,8.055484792773438,4.40628478125L8.748446492773438,5.67271228125C11.782222092773438,3.12586978125,15.104628092773437,1.60005338125,17.750595092773438,1.60005338125C17.833240092773437,1.60005338125,17.915890092773438,1.60132508125,17.99599309277344,1.60513978125C16.292196092773437,0.61844402125,14.318845092773438,0.03863369625,12.209442092773438,0.00175979505ZM12.135577092773438,5.48957448125C15.731350092773438,5.55187888125,18.596018092773438,8.51832108125,18.53244409277344,12.11416128125C18.522270092773436,12.71050228125,18.431995092773438,13.28649828125,18.27178609277344,13.83197828125C21.385666092773437,9.75677488125,22.414303092773437,5.48830218125,20.508339092773436,3.53907208125C20.495621092773437,3.52635718125,20.48290809277344,3.51364188125,20.471466092773436,3.50092698125C19.805204092773437,2.84228278125,18.86430209277344,2.53076168125,17.75174709277344,2.53076168125C15.601659092773437,2.53076168125,12.809467092773437,3.69419668125,10.107551092773438,5.77439408125C10.748382092773438,5.57730958125,11.429901092773438,5.47686008125,12.136849092773437,5.48830368125L12.135577092773438,5.48957448125ZM22.39621909277344,6.00683598125C22.430551092773438,6.98335888125,22.250000092773437,8.08067608125,21.849480092773437,9.26699828125C20.995037092773437,11.79603928125,19.221310092773436,14.49037828125,16.855068092773436,16.85666628125C13.436030092773438,20.27576828125,9.371075592773437,22.40046928125,6.248296692773438,22.40046928125C6.165649892773438,22.40046928125,6.0830030927734375,22.39919828125,6.002899192773437,22.39538428125C7.709238992773438,23.38207828125,9.681320192773438,23.96188728125,11.790722092773438,23.99876428125C18.41645409277344,24.11447128125,23.88259109277344,18.83641428125,23.998297092773438,12.21055628125C24.037714092773438,9.95234678125,23.450287092773436,7.83018968125,22.39749109277344,6.00683828125L22.39621909277344,6.00683598125ZM11.908841092773438,18.51266528125C8.313068392773438,18.45036128125,5.448401492773438,15.48392028125,5.511976192773438,11.88807828125C5.523419392773437,11.25740828125,5.623866992773437,10.64962528125,5.800604392773438,10.07617228125C2.6307797927734375,14.17934728125,1.5716288927734374,18.49868028125,3.4928500927734376,20.46317128125C3.5055651927734375,20.47588528125,3.5182799927734374,20.48860128125,3.5297233927734375,20.50131628125C4.195984392773438,21.15996028125,5.136886592773437,21.47148128125,6.249440192773437,21.47148128125C8.391900992773438,21.47148128125,11.171377092773438,20.31567528125,13.864393092773437,18.25073628125C13.245176092773438,18.43383428125,12.587817092773438,18.52665528125,11.907571092773438,18.51394128125L11.908841092773438,18.51266528125Z" fill-rule="evenodd" fill="#FFFFFF" fill-opacity="1" style="mix-blend-mode:passthrough"/><path d="M7.299030318804931,4.70849609375C7.269786118804932,4.70849609375,7.215112018804932,4.71739665415,7.183324818804932,4.77715797675L6.414073218804932,6.18472409375C6.339055518804932,6.3207761937499995,6.228435718804931,6.43266939375,6.092386618804932,6.50641689375L4.684847190804931,7.27568319375C4.625087009704932,7.30874209375,4.616186618804932,7.36214589375,4.616186618804932,7.39139079375C4.616186618804932,7.42063549375,4.625087009704932,7.475310593750001,4.684847190804931,7.507098393750001L6.092386618804932,8.277635793750001C6.228435718804931,8.35265469375,6.340327218804932,8.463276593749999,6.414073218804932,8.59932879375L7.184596518804931,10.00689509375C7.217654918804932,10.06665659375,7.271057618804932,10.075556293750001,7.300302018804931,10.075556293750001C7.329546418804932,10.075556293750001,7.384220318804932,10.06665659375,7.416007718804932,10.00689509375L8.185259118804932,8.59932879375C8.260276518804933,8.463276593749999,8.370896618804931,8.35138369375,8.50694561880493,8.277635793750001L9.914485018804932,7.50836969375C9.974245518804931,7.475310593750001,9.98314571880493,7.4219069937499995,9.98314571880493,7.392662093749999C9.98314571880493,7.36341719375,9.974245518804931,7.30874209375,9.914485018804932,7.27695419375L8.50694561880493,6.50768829375C8.370896618804931,6.43394029375,8.259005818804932,6.3220471937500005,8.185259118804932,6.18599549375L7.414736018804932,4.77842927675C7.381677418804932,4.71866795475,7.328274218804932,4.70976739445,7.299030318804931,4.70976739445L7.299030318804931,4.70849609375Z" fill="#A2E818" fill-opacity="1" style="mix-blend-mode:passthrough"/><path d="M75.24799014570313,12.626828643749999L73.00762544570313,7.82177734375L71.02664184570312,7.82177734375L73.26446914570313,12.62937214375L75.24799014570313,12.626828643749999Z" fill="#A2E818" fill-opacity="1" style="mix-blend-mode:passthrough"/><path d="M63.360447003906245,13.6608939375L63.360447003906245,11.6938629375L61.05014600390625,9.2576427375L62.69418300390625,9.2500143375C63.06164600390625,9.2500143375,63.360443003906255,8.6409587375,63.360443003906255,8.2734909375L63.360443003906255,7.2219486375L61.80540800390625,5.5600805375L63.07817100390625,5.5600805375L63.07817100390625,4.146157237500001C63.11249900390625,3.5498170375,62.72723800390625,3.0145092375,62.10802500390625,3.0145092375L57.010620003906254,3.0145092375L56.99790400390625,1.6005859375L55.01819200390625,1.605670929L55.01819200390625,3.0145092375L48.65438800390625,3.0145092375L48.65438800390625,5.5600805375L50.07209800390625,5.5600805375L48.37211600390625,7.2600956375L48.37211600390625,9.8590698375C48.37211600390625,10.1540603375,48.457306003906254,10.3829326375,48.78535100390625,10.3918342375L49.727524003906254,10.3943758375L48.37339000390625,11.8324589375L48.37339000390625,13.7880469375C48.37339000390625,13.9686009375,48.59971600390625,14.0347209375,48.75102200390625,13.8783249375L49.911892003906246,12.6563989375L55.02328500390625,12.6602139375L55.01947000390625,16.4493259375L56.99918200390625,16.4493259375L57.005537003906255,12.6627569375L61.956718003906246,12.6589429375L63.04765700390625,13.8058469375C63.202778003906246,13.9304579375,63.361713003906246,13.8147479375,63.361713003906246,13.6608939375L63.360447003906245,13.6608939375ZM93.07053800390625,3.0145092375L88.10791400390625,3.0145092375L88.10791400390625,1.6005859375L86.12820400390625,1.6005859375L86.12820400390625,3.0145092375L80.18907200390625,3.0145092375L80.18907200390625,6.1259040375L82.16878100390625,6.1259040375L82.16878100390625,4.4284324375L92.06732900390625,4.4284324375L92.06732900390625,6.1259040375L94.05466800390624,6.1259040375L94.05466800390624,4.0037469375C94.05466800390624,3.6083068375,93.74950800390624,3.0412111375,93.07053800390625,3.0157804375L93.07053800390625,3.0145092375ZM77.78417600390625,4.7092886375L77.78417600390625,2.4472656275L75.80446600390624,2.4472656275L75.79556300390625,4.7258186375L71.31101600390625,4.7105598375L71.31101600390625,6.1371984375L75.80319200390625,6.1371984375L75.80319200390625,15.0339809375L73.11653100390626,15.0339809375L73.11653100390626,16.4453629375L76.78605300390625,16.4453629375C77.31753500390624,16.4453629375,77.78290600390625,16.0130459375,77.78290600390625,15.4815539375L77.78290600390625,6.1371984375L78.91579800390625,6.1371984375L78.91579800390625,4.7105598375L77.78290600390625,4.7105598375L77.78417600390625,4.7092886375ZM69.71784600390626,3.0144558375L64.49075300390625,3.0144558375L64.49075300390625,16.4467279375L69.71784600390626,16.4467279375C70.26585800390626,16.4467279375,70.68799600390625,16.0500169375,70.72105400390625,15.5045359375L70.72105400390625,3.9401178375C70.67655600390626,3.4035387375,70.25441700390624,3.0131836375,69.71784600390626,3.0131836375L69.71784600390626,3.0144558375ZM32.81520080590625,3.0146484375L35.07717900390625,7.2564191375L37.03018950390625,7.2500610375L34.73514940390625,3.0146484375L32.81520080590625,3.0146484375ZM46.23418400390625,3.0146484375L37.05657200390625,3.0146484375L37.05657200390625,16.4481959375L39.03628540390625,16.4481959375L39.03628540390625,4.4362011374999994L45.25895700390625,4.4285717375L45.25895700390625,16.4494669375L47.22467800390625,16.4494669375L47.22467800390625,4.005157437499999C47.22467800390625,3.4685793375,46.76567100390625,3.0159196374999997,46.23418400390625,3.0146484375ZM66.47045900390626,4.4258356375000005L68.73371500390624,4.4258356375000005L68.74388500390626,8.1055965375L66.45774500390624,8.1055965375L66.47045900390626,4.4258356375000005ZM56.29604700390625,6.6891842375L58.45758100390625,8.980451537499999L53.39831900390625,8.9868097375L55.50899500390625,6.7298727375C56.10405200390625,6.0483408375,55.47593300390625,5.275260937500001,54.97751200390625,5.275260937500001L50.63283500390625,5.277803437499999L50.63283500390625,4.429703737500001L61.238331003906254,4.429703737500001L61.238331003906254,5.290518737499999L56.92670800390625,5.2765312375C56.48168800390625,5.2231283375,55.68318900390625,5.8805008375,56.29605100390625,6.6904544375L56.29604700390625,6.6891842375ZM39.88623810390625,5.8427734375L44.55260500390625,5.8427734375L44.55260500390625,7.2566967375L39.88623810390625,7.2566967375L39.88623810390625,5.8427734375ZM83.86439100390625,5.8427734375L82.45049700390625,7.8695669375C82.32970400390624,8.0132484375,82.15296600390624,8.095895737500001,81.96478700390625,8.095895737500001L80.04610400390625,8.095895737500001L80.04610400390625,9.519990937500001L82.54966700390625,9.519990937500001C83.23881500390624,9.519990937500001,83.88855000390626,9.2173709375,84.33229800390626,8.6909647375L86.31201200390625,5.8440437375L83.86439100390625,5.8440437375L83.86439100390625,5.8427734375ZM90.39131900390625,5.8427734375L91.80521800390625,7.8695669375C91.92601000390624,8.0132484375,92.10274900390624,8.095895737500001,92.29092800390626,8.095895737500001L94.20961000390625,8.095895737500001L94.20961000390625,9.519990937500001L91.70604700390625,9.519990937500001C91.01689900390625,9.519990937500001,90.36716100390625,9.2173709375,89.92341200390625,8.6909647375L87.94370300390625,5.8440437375L90.39131900390625,5.8440437375L90.39131900390625,5.8427734375ZM59.85113100390625,8.0039291375L58.34696200390625,6.4221668375L60.30124100390625,6.4272518375L61.765995003906255,7.9963007375L59.85113100390625,8.0039291375ZM53.512753003906255,6.4247093375L52.81852000390625,7.1545581375L50.899841003906246,7.1329431375L51.57373000390625,6.4247093375L53.512753003906255,6.4247093375ZM32.80035400390625,7.2490234375L34.67522430390625,7.2566509375L36.48131560390625,10.5625877375C36.63643650390625,10.8537655375,36.68348310390625,11.2034320375,36.55125050390625,11.5543699375L34.75844570390625,16.447154937500002L32.83214187590625,16.4535129375L34.82075120390625,10.9745597375L32.80035400390625,7.2490234375ZM49.14264300390625,8.9817247375L49.95258300390625,8.1298103375L51.89541600390625,8.127266837499999L51.08166500390625,8.9791813375L49.14264300390625,8.9829959375L49.14264300390625,8.9817247375ZM43.56182500390625,8.387502637499999L39.88467410390625,8.387502637499999L39.88467410390625,16.4476289375L43.56182500390625,16.4476289375C44.09330700390625,16.4476289375,44.54214100390625,16.0229439375,44.54214100390625,15.4571189375L44.55231500390625,9.3767395375C44.55231500390625,8.810915937499999,44.078045003906254,8.3862304375,43.561821003906246,8.3862304375L43.56182500390625,8.387502637499999ZM68.73371500390624,15.0340789375L66.47046300390625,15.0340789375L66.47046300390625,9.5169792375L68.73371500390624,9.5169792375L68.73371500390624,15.0340789375ZM41.58211520390625,15.0286199375L41.58211520390625,9.8026981375L42.71373750390625,9.8077840375L42.71373750390625,15.0349769375L41.58211520390625,15.0286199375ZM51.24950400390625,11.2437467375L52.07215900390625,10.3816595375L59.793919003906254,10.3867464375L60.61275900390625,11.2488327375L51.24950400390625,11.2437467375ZM94.47139700390625,15.0483069375L88.10759400390626,15.0343209375L88.10759400390626,11.9114829375L94.18785900390625,11.9216549375L94.18785900390625,10.4975586375L80.04761500390626,10.4975586375L80.04761500390626,11.9203839375L86.12788000390626,11.9114829375L86.12788000390626,15.0330509375L79.76407600390624,15.0330509375L79.76407600390624,16.4444289375L86.01218000390625,16.4444289375L86.01218000390625,16.4469729375L88.24237100390624,16.4469729375L88.24237100390624,16.4444289375L94.47139700390625,16.4444289375L94.47139700390625,15.0483069375ZM48.27993000390625,16.4542619375L50.69449200390625,16.4542619375L53.16372300390625,13.6582029375L50.740265003906245,13.6582029375L48.27993000390625,16.4542619375ZM63.50535000390625,16.4517189375L61.092060003906255,16.4542619375L58.622826003906255,13.6582029375L61.047558003906246,13.6582029375L63.50535000390625,16.4517189375ZM93.92436600390624,18.4550439375C94.22570800390625,18.4550439375,94.46983300390625,18.2109129375,94.46983300390625,17.9095649375L94.46983300390625,17.8536189375L91.54286200390625,17.8510739375C91.24532700390625,17.8765049375,91.00502000390625,18.0913909375,91.00375000390625,18.3889239375L90.99993100390626,21.3286649375C90.99993100390626,21.6261979375,91.24024600390625,21.8677859375,91.53776900390625,21.8805009375L94.46855200390624,21.8805009375L94.46855200390624,21.2638169375L91.80350500390625,21.2638169375L91.80350500390625,20.1003799375L94.05149800390625,20.1003799375L94.05149800390625,19.4964119375L91.80350500390625,19.4964119375L91.80350500390625,18.4524979375L93.92180600390626,18.4550419375L93.92436600390624,18.4550439375ZM32.80113220214625,17.8554689375L33.60598373390625,17.8554689375L33.60598373390625,21.8798099375L32.80113220214625,21.8798099375L32.80113220214625,17.8554689375ZM38.16520310390625,21.8785379375L38.16520310390625,17.8554689375L37.36035160390625,17.8554689375L37.36035160390625,20.5599789375Q35.37301250390625,18.1123139375,35.30180740390625,18.0512829375C35.26366420390625,18.0182249375,35.22933200390625,17.9902519375,35.19754410390625,17.9673629375C35.04242320390625,17.8580129375,34.94705960390625,17.8554689375,34.81991200390625,17.8554689375L34.41049190390625,17.8554689375L34.41557690390625,21.8747229375L34.41557690390625,21.8785379375L35.21534350390625,21.8785379375L35.21534350390625,19.2185329375L37.33237460390625,21.7106989375L37.33364490390625,21.7119709375C37.33872990390625,21.7170559375,37.34508900390625,21.7221429375,37.35144420390625,21.7259579375C37.539623303906254,21.8747229375,37.64134600390625,21.8785379375,37.78375240390625,21.8785379375L38.16520310390625,21.8785379375ZM38.16520310390625,21.8785379375L38.16647340390625,21.8785379375L38.16520310390625,21.8798099375L38.16520310390625,21.8785379375ZM53.32891100390625,19.4880919375L52.649937003906246,19.4880919375L52.649937003906246,17.8554689375L51.832371003906246,17.8554689375L51.832371003906246,19.4880919375L49.96836500390625,19.4880919375L49.96836500390625,17.8554689375L49.163513003906246,17.8554689375L49.163513003906246,21.8798099375L49.96836500390625,21.8798099375L49.96836500390625,20.0920619375L51.832371003906246,20.0920619375L51.832371003906246,21.8798099375L52.649937003906246,21.8798099375L52.649937003906246,20.0920619375L53.32891100390625,20.0920619375L53.32891100390625,19.4880919375ZM53.58867600390625,17.8554689375L53.58867600390625,18.4568939375L54.91992800390625,18.4632529375L54.91992800390625,21.8798099375L55.73368100390625,21.8798099375L55.73368100390625,18.4594379375L56.80809000390625,18.4594379375C57.063662003906245,18.4594379375,57.34211700390625,18.2458249375,57.34211700390625,17.9508319375L57.34211700390625,17.8592839375L53.58867600390625,17.8554689375ZM75.42028800390625,21.2758409375L72.73745000390625,21.2758409375L72.73745000390625,18.4568939375L74.87355000390625,18.4594379375C75.17489200390625,18.4594379375,75.41901400390626,18.2153069375,75.41901400390626,17.9139599375L75.41901400390626,17.8580129375L72.47425100390625,17.8554689375C72.17671600390625,17.8554689375,71.93640900390625,18.0957849375,71.93513900390624,18.3933179375L71.93132000390625,21.3406889375C71.93132000390625,21.6382219375,72.17163500390626,21.8798099375,72.46915800390624,21.8798099375L75.41774400390625,21.8798099375L75.41774400390625,21.2758429375L75.42028800390625,21.2758409375ZM79.61507800390625,17.9139599375C79.61507800390625,18.2153069375,79.37095300390625,18.4594379375,79.06961100390626,18.4594379375L79.06706200390624,18.4594379375L76.93096200390625,18.4568939375L76.93096200390625,19.4766479375L79.33789100390625,19.4766479375L79.33789100390625,20.0806179375L76.93096200390625,20.0806179375L76.93096200390625,21.2758409375L79.61380400390625,21.2758409375L79.61380400390625,21.8798099375L76.66521800390625,21.8798099375C76.36769500390625,21.8798099375,76.12738000390624,21.6382199375,76.12738000390624,21.3406869375L76.13119900390625,18.3933179375C76.13246900390625,18.0957849375,76.37277600390625,17.8554689375,76.67031100390625,17.8554689375L79.61507800390625,17.8580129375L79.61507800390625,17.9139599375ZM80.20566900390625,17.8554689375L80.20566900390625,18.4568939375L81.53691900390625,18.4632529375L81.53691900390625,21.8798099375L82.35067400390625,21.8798099375L82.35067400390625,18.4594379375L83.42508300390625,18.4594379375C83.68065600390625,18.4594379375,83.95911000390625,18.2458249375,83.95911000390625,17.9508319375L83.95911000390625,17.8592839375L80.20566900390625,17.8554689375ZM84.56638300390625,17.8554689375L85.37123500390625,17.8554689375L85.37123500390625,21.8836249375L84.56638300390625,21.8836249375L84.56638300390625,17.8554689375ZM89.27028300390626,18.0016939375L88.10432800390625,19.8924349375L87.07188000390624,18.0067789375C87.01975200390625,17.9139599375,86.92184400390624,17.8554689375,86.81503700390624,17.8554689375L86.57344800390625,17.8554689375C86.35729600390624,17.8554689375,86.16911700390625,18.0538249375,86.19073100390625,18.2776129375L86.19073100390625,21.8785399375L86.99558300390625,21.8836249375L87.00321200390624,19.3749279375L87.72923700390625,20.5612509375C87.87291700390625,20.7697789375,87.94157400390625,20.8664129375,88.12594200390626,20.8664129375C88.31031000390625,20.8664129375,88.35226800390625,20.8295399375,88.50993300390624,20.6057529375L89.36056100390624,19.2426889375L89.36056100390624,21.8848949375L90.16541700390624,21.8848949375L90.16541700390624,18.2661669375C90.16541700390624,18.0398389375,89.98232300390626,17.8567389375,89.75600100390625,17.8567389375L89.53221500390626,17.8567389375C89.42540700390626,17.8567389375,89.32623700390624,17.9114129375,89.27028300390626,18.0016939375ZM46.74984600390625,19.4913239375L46.752380003906254,20.0927429375L47.55723200390625,20.0927429375L47.55468700390625,21.2790659375L45.67670100390625,21.2765239375L45.67670100390625,18.4588469375L47.81280100390625,18.4613919375C48.11414300390625,18.4613919375,48.35827300390625,18.2172599375,48.35827300390625,17.9159129375L48.35827300390625,17.8599659375L45.41349800390625,17.8574219375C45.11597100390625,17.8574219375,44.87566000390625,18.0977379375,44.87439000390625,18.3952709375L44.870575003906254,21.3426419375C44.870575003906254,21.6401749375,45.11088900390625,21.8817639375,45.40841700390625,21.8817639375L47.81916000390625,21.8817639375C48.11668800390625,21.8817639375,48.357002003906246,21.6414489375,48.357002003906246,21.3439139375L48.357002003906246,20.0266269375C48.357002003906246,19.7329059375,48.11923600390625,19.4938619375,47.82552000390625,19.4938619375L46.74984600390625,19.4913239375ZM46.74984600390625,19.4913239375L46.74729500390625,19.4913179375L46.74983600390625,19.4887749375L46.74984600390625,19.4913239375ZM71.47873700390625,21.8804909375L70.00126600390625,18.1816579375C69.92243200390625,17.9858459375,69.73298300390624,17.8574219375,69.52064100390625,17.8574219375L68.97263000390625,17.8574219375C68.77046200390626,17.8574219375,68.58736800390625,17.9807589375,68.51235200390624,18.1689419375L67.02979300390625,21.8817639375L67.91348300390625,21.8817639375L69.25363200390625,18.5236929375L70.59378100390626,21.8817639375L71.47747000390625,21.8817639375L71.47873700390625,21.8804909375ZM39.77469630390625,19.4862349375L39.77469630390625,18.4652099375L41.929874403906254,18.4677529375C42.22104640390625,18.4677529375,42.45754240390625,18.2325209375,42.45754240390625,17.9400749375L42.45754240390625,17.8574279375L39.50895690390625,17.8574279375C39.21142580390625,17.8561569375,38.96984480390625,18.0977439375,38.96984480390625,18.3940069375L38.96984480390625,19.5498119375C38.96984480390625,19.8460749375,39.20888520390625,20.0851209375,39.50514220390625,20.0863919375L41.641243003906254,20.0914769375L41.641243003906254,21.2816139375L38.969841003906254,21.2714419375L38.969841003906254,21.8792249375L41.92224120390625,21.8792249375C42.21722790390625,21.8792249375,42.45626830390625,21.6401789375,42.45626830390625,21.3451899375L42.45626830390625,20.0215439375C42.45626830390625,19.7252809375,42.21595380390625,19.4862349375,41.92097090390625,19.4862349375L39.77469630390625,19.4862349375ZM60.16751100390625,19.4569909375L60.16751100390625,18.4652099375L62.32268700390625,18.4677529375C62.61386100390625,18.4677529375,62.85035500390625,18.2325209375,62.85035500390625,17.9400749375L62.85035500390625,17.8574279375L59.90177000390625,17.8574279375C59.60424200390625,17.8561569375,59.362659003906245,18.0977439375,59.362659003906245,18.3940069375L59.362659003906245,19.5205689375C59.362659003906245,19.8168319375,59.601700003906245,20.0558759375,59.89795500390625,20.0571479375L62.03405800390625,20.0622329375L62.03405800390625,21.2816139375L59.36265600390625,21.2714419375L59.36265600390625,21.8792249375L62.31505600390625,21.8792249375C62.61004300390625,21.8792249375,62.84908300390625,21.6401789375,62.84908300390625,21.3451899375L62.84908300390625,19.9922979375C62.84908300390625,19.6960349375,62.60876800390625,19.4569909375,62.31378600390625,19.4569909375L60.16751100390625,19.4569909375ZM66.57467700390626,17.8628959375L63.63372000390625,17.8628959375L63.63372000390625,18.4719489375L66.34072500390624,18.4617769375L66.34072500390624,19.4599169375L63.63753500390625,19.4522879375L63.63753500390625,21.8796079375L64.43475700390624,21.8796079375L64.43475700390624,20.0626149375L66.57976200390624,20.0562569375C66.87982900390625,20.0359119375,67.14430200390625,19.8489989375,67.14430200390625,19.5489219375L67.14430200390625,18.4312629375C67.14430200390625,18.1159269375,66.88873300390625,17.8603519375,66.57340200390625,17.8603519375L66.57467700390626,17.8628959375ZM44.06606900390625,17.8754879375L43.26121500390625,17.8754879375L43.26121500390625,21.8998299375L44.06606900390625,21.8998299375L44.06606900390625,17.8754879375Z" fill-rule="evenodd" fill="#FFFFFF" fill-opacity="1" style="mix-blend-mode:passthrough"/></svg>