<svg xmlns="http://www.w3.org/2000/svg" xmlns:xlink="http://www.w3.org/1999/xlink" fill="none" version="1.1" width="24" height="24" viewBox="0 0 24 24"><defs><clipPath id="master_svg0_417_008180"><rect x="-0.75" y="-0.75" width="25.5" height="25.5" rx="0"/></clipPath><clipPath id="master_svg1_417_008180"><rect x="0" y="0" width="24" height="24" rx="0"/></clipPath><mask id="master_svg2_417_008180/417_09693" style="mask-type:alpha" maskUnits="userSpaceOnUse" x="2" y="2" width="17" height="17"><ellipse cx="10" cy="10" rx="8" ry="8" fill="#FFFFFF" fill-opacity="1"/></mask></defs><g clip-path="url(#master_svg0_417_008180)"><ellipse cx="10" cy="10" rx="7.625" ry="7.625" fill-opacity="0" stroke-opacity="1" stroke="#8A8F99" fill="none" stroke-width="1.5"/><path d="M15.999977275444056,16.749979972839355L24.485267672839356,16.750010492839355L24.485267672839356,16.749860522839356Q24.559121172839355,16.749860522839356,24.631556472839357,16.735452292839355Q24.703991872839353,16.721044182839357,24.772223472839357,16.692781562839354Q24.840455072839355,16.664518952839355,24.901863072839355,16.623487952839355Q24.963271172839356,16.582457002839355,25.015493372839355,16.530234512839357Q25.067715672839356,16.478011992839356,25.108747472839354,16.416604812839356Q25.149777372839356,16.355197642839354,25.178040472839356,16.286965642839355Q25.206303572839353,16.218733672839356,25.220711672839357,16.146298962839357Q25.235119772839354,16.073864273839355,25.235120772839355,16.000010490417356Q25.235119772839354,15.926156714839355,25.220711672839357,15.853722002839355Q25.206303572839353,15.781287312839355,25.178040472839356,15.713055312839355Q25.149777372839356,15.644823312839355,25.108747472839354,15.583416162839356Q25.067716572839355,15.522008982839356,25.015494372839356,15.469786462839355Q24.963271172839356,15.417563972839355,24.901864072839356,15.376533032839355Q24.840456972839355,15.335502032839356,24.772225372839355,15.307239412839355Q24.703993772839354,15.278976802839356,24.631558372839358,15.264568622839356Q24.559123972839355,15.250160452839356,24.485270472839353,15.250160452839356L24.485273372839355,15.250010492839355L15.999982670234655,15.249979972839355L15.999982669695356,15.250129942839356L15.999979972839355,15.250129942839356Q15.926126189839355,15.250129942839356,15.853691492839355,15.264538172839355Q15.781256792839356,15.278946282839355,15.713024792839356,15.307208892839355Q15.644792792839356,15.335471512839355,15.583385642839355,15.376502512839355Q15.521978462839355,15.417533452839356,15.469755942839356,15.469755942839356Q15.417533452839356,15.521978462839355,15.376502512839355,15.583385642839355Q15.335471512839355,15.644792792839356,15.307208892839355,15.713024792839356Q15.278946282839355,15.781256792839356,15.264538172839355,15.853691492839355Q15.250129942839356,15.926126189839355,15.250129942839356,15.999979972839355Q15.250129942839356,16.073833576839355,15.264538052839356,16.146268112839355Q15.278946162839356,16.218702642839354,15.307208712839355,16.286934492839354Q15.335471152839355,16.355166372839356,15.376501972839355,16.416573462839356Q15.417532742839356,16.477980552839355,15.469755052839355,16.530203042839357Q15.521977332839356,16.582425472839354,15.583384242839356,16.623456482839355Q15.644791182839356,16.664487482839355,15.713022942839356,16.692750212839357Q15.781254712839356,16.721012952839356,15.853689192839356,16.735421362839354Q15.926123670839356,16.749829772839355,15.999977275983355,16.749830002839357L15.999977275444056,16.749979972839355Z" fill-rule="evenodd" fill="#8A8F99" fill-opacity="1"/><g clip-path="url(#master_svg1_417_008180)" mask="url(#master_svg2_417_008180/417_09693)"><ellipse cx="12.5" cy="12.5" rx="6.5" ry="6.5" fill="#8A8F99" fill-opacity="1"/></g></g></svg>