<svg xmlns="http://www.w3.org/2000/svg" xmlns:xlink="http://www.w3.org/1999/xlink" fill="none" version="1.1" width="32" height="32" viewBox="0 0 32 32"><g><rect x="0.5" y="0.5" width="31" height="31" rx="7.5" fill-opacity="0" stroke-opacity="0.10000000149011612" stroke="#FFFFFF" fill="none" stroke-width="1"/><g transform="matrix(0,-1,-1,0,38,38)"><path d="M22,18.9393399L17.46966994,23.4696698L17.46977603,23.469775900000002Q17.36430788,23.5752439,17.30722892,23.7130446Q17.25014997,23.8508456,17.25014997,24Q17.25014997,24.0738535,17.2645582,24.1462884Q17.27896631,24.2187233,17.30722892,24.286954899999998Q17.33549154,24.3551869,17.37652254,24.416594Q17.41755348,24.4780016,17.46977597,24.5302238Q17.52199849,24.5824461,17.58340567,24.623477Q17.64481282,24.6645079,17.71304482,24.692771Q17.78127682,24.7210336,17.85371152,24.7354422Q17.926146217,24.7498503,18,24.7498503Q18.14915445,24.7498503,18.28695521,24.692771Q18.42475596,24.6356926,18.53022408,24.5302243L18.53033006,24.5303302L22,21.0606602L25.4696698,24.5303302L25.4697757,24.5302243Q25.5752439,24.6356926,25.7130442,24.692771399999998Q25.8508453,24.7498503,26,24.7498503Q26.0738535,24.7498503,26.1462879,24.7354417Q26.2187233,24.7210336,26.286954899999998,24.692771Q26.355186500000002,24.6645079,26.4165936,24.623477Q26.4780006,24.5824461,26.5302238,24.5302238Q26.5824451,24.4780016,26.623477,24.416594Q26.6645069,24.3551869,26.69277,24.286954899999998Q26.7210331,24.2187233,26.7354412,24.1462884Q26.7498493,24.0738535,26.7498503,24Q26.7498493,23.8508453,26.692771,23.7130444Q26.6356916,23.5752435,26.5302238,23.4697757L26.5303297,23.4696698L22,18.9393399Z" fill-rule="evenodd" fill="#C7CAD1" fill-opacity="1"/></g></g></svg>