<svg xmlns="http://www.w3.org/2000/svg" xmlns:xlink="http://www.w3.org/1999/xlink" fill="none" version="1.1" width="16" height="16" viewBox="0 0 16 16"><defs><clipPath id="master_svg0_417_26287"><rect x="0" y="0" width="16" height="16" rx="0"/></clipPath></defs><g clip-path="url(#master_svg0_417_26287)"><path d="M1.333251953125,3.333251953125L5.999918953125,1.333251953125L9.999918953125,3.333251953125L14.201918953125,1.532385353125C14.371184953125,1.459865253125,14.567118953125,1.538245363125,14.639651953125,1.707458673125C14.657385953125,1.748951913125,14.666585953125,1.793625353125,14.666585953125,1.838765323125L14.666585953125,12.666585953125L9.999918953125,14.666585953125L5.999918953125,12.666585953125L1.797891943125,14.467451953125C1.628678653125,14.539985953125,1.432725273125,14.461584953125,1.360205334125,14.292384953125C1.342418670625,14.250917953125,1.333251953125,14.206185953125,1.333251953125,14.161051953125L1.333251953125,3.333251953125ZM10.666585953125,12.930251953125L13.333251953125,11.787385953125L13.333251953125,3.355305453125L10.666585953125,4.4981589531249995L10.666585953125,12.930251953125ZM9.333251953125,12.842519953125L9.333251953125,4.490632053125L6.666585453125,3.157298853125L6.666585453125,11.509185953125L9.333251953125,12.842519953125ZM5.333251953125,11.501651953125L5.333251953125,3.069591853125L2.666585353125,4.212445253125L2.666585353125,12.644518953125L5.333251953125,11.501651953125Z" fill="#8F96A4" fill-opacity="1" style="mix-blend-mode:passthrough"/></g></svg>